<?xml version="1.0" encoding="utf-8"?>
<!-- Generator: Adobe Illustrator 23.0.1, SVG Export Plug-In . SVG Version: 6.00 Build 0)  -->
<svg version="1.1" id="Layer_1" xmlns="http://www.w3.org/2000/svg" xmlns:xlink="http://www.w3.org/1999/xlink" x="0px" y="0px"
	 viewBox="0 0 187.12 29.13" style="enable-background:new 0 0 187.12 29.13;" xml:space="preserve">
<style type="text/css">
	.st0{fill:#18355F;}
	.st1{fill:#5BA646;}
</style>
<g>
	<path class="st0" d="M94.76,22.52V2.42h2.15v20.1H94.76z"/>
	<path class="st0" d="M111.24,22.52v-8.55c0-2.46-1.33-3.7-3.42-3.7s-3.44,1.27-3.44,3.7v8.55h-2.03V8.63h2.03v1.52
		c0.99-1.13,2.34-1.69,3.9-1.69c1.5,0,2.71,0.45,3.56,1.3c0.99,0.96,1.44,2.26,1.44,3.87v8.89H111.24z"/>
	<path class="st0" d="M116.72,28.76h-1.47v-1.78h1.1c1.41,0,1.86-0.68,1.86-2.03V8.72h2.03v16.32
		C120.25,27.15,119.14,28.76,116.72,28.76z M118.1,4.68V2.39h2.29v2.29H118.1z"/>
	<path class="st0" d="M134.13,22.52v-1.55c-0.99,1.13-2.37,1.72-3.92,1.72c-1.5,0-2.74-0.45-3.58-1.3c-0.99-0.96-1.41-2.29-1.41-3.9
		V8.63h2.03v8.55c0,2.46,1.3,3.7,3.39,3.7s3.47-1.27,3.47-3.7V8.63h2.03v13.89H134.13z"/>
	<path class="st0" d="M148.98,11.28c-0.76-0.76-1.33-1.02-2.4-1.02c-2.03,0-3.33,1.61-3.33,3.73v8.53h-2.03V8.63h2.03v1.69
		c0.76-1.16,2.29-1.86,3.9-1.86c1.33,0,2.34,0.31,3.33,1.3L148.98,11.28z"/>
	<path class="st0" d="M152.99,4.68V2.39h2.29v2.29H152.99z M153.1,22.52V8.63h2.03v13.89H153.1z"/>
	<path class="st0" d="M161.51,16.11c0,3.05,1.44,4.8,4.09,4.8c1.61,0,2.54-0.48,3.64-1.58l1.38,1.21c-1.41,1.41-2.71,2.14-5.08,2.14
		c-3.67,0-6.07-2.2-6.07-7.11c0-4.49,2.17-7.11,5.7-7.11c3.58,0,5.7,2.6,5.7,6.72v0.93H161.51z M168.43,12.27
		c-0.54-1.27-1.78-2.09-3.25-2.09s-2.71,0.82-3.25,2.09c-0.31,0.76-0.37,1.19-0.42,2.31h7.34C168.8,13.46,168.74,13.04,168.43,12.27
		z"/>
	<path class="st0" d="M179.58,22.69c-2.34,0-4.18-0.54-5.7-2l1.35-1.35c1.1,1.16,2.6,1.61,4.32,1.61c2.29,0,3.7-0.82,3.7-2.46
		c0-1.21-0.71-1.89-2.31-2.03l-2.29-0.2c-2.71-0.23-4.15-1.44-4.15-3.73c0-2.54,2.15-4.06,5.11-4.06c1.98,0,3.75,0.48,5,1.5
		l-1.33,1.33c-0.99-0.76-2.26-1.1-3.7-1.1c-2.03,0-3.11,0.88-3.11,2.29c0,1.19,0.68,1.89,2.43,2.03l2.23,0.2
		c2.43,0.23,4.09,1.16,4.09,3.75C185.22,21.14,182.94,22.69,179.58,22.69z"/>
</g>
<g>
	<path class="st0" d="M1.13,22.84v-3.16L9.71,6.24H1.5v-3.5h12.84v3.1L5.73,19.34h8.61v3.5H1.13z"/>
	<path class="st0" d="M17.81,22.84V2.74h13.24v3.5h-9.32v4.71h7.93v3.5h-7.93v4.88h9.32v3.5H17.81z"/>
	<path class="st0" d="M45.56,22.84l-3.92-8.02h-2.82v8.02h-3.92V2.74h7.88c4.09,0,6.52,2.79,6.52,6.15c0,2.82-1.72,4.57-3.67,5.28
		l4.49,8.67H45.56z M42.51,6.24h-3.7v5.31h3.7c1.72,0,2.85-1.1,2.85-2.65S44.23,6.24,42.51,6.24z"/>
</g>
<g id="XMLID_44_">
	<g id="XMLID_45_">
		<g>
			<path id="XMLID_31_" class="st1" d="M79.31,13.96c-0.48-0.36-0.95-0.65-1.36-0.88c0-0.04,0-0.09,0-0.13
				c0-3.75-1.71-7.1-4.39-9.31v4.76c0,0.54-0.45,0.99-0.99,0.99c-0.55,0-0.99-0.44-0.99-0.99V2.31c-1.2-0.64-2.51-1.09-3.91-1.29
				v3.73c0,0.95-0.77,1.72-1.72,1.72c-0.95,0-1.72-0.77-1.72-1.72V1c-1.47,0.2-2.85,0.66-4.1,1.34v6.07c0,0.54-0.44,0.99-0.99,0.99
				c-0.54,0-0.99-0.44-0.99-0.99V3.68c-2.65,2.21-4.34,5.54-4.34,9.27c0,0-1.97,1.06-1.92,1.95c0.05,0.9,1.08,1.37,1.7,1.7
				c0,0,0.29,0.17,0.93,0.4c1.53,0.57,5.07,1.53,11.46,1.53c0,0,7.08,0,11.29-1.57c0.88-0.33,1.65-0.73,2.18-1.21
				C79.45,15.75,80.67,14.98,79.31,13.96z"/>
			<path id="XMLID_30_" class="st1" d="M74.8,18.51c-1.84,2.97-5.13,4.95-8.87,4.95c-3.71,0-6.98-1.95-8.83-4.88
				c-0.91-0.17-1.66-0.35-2.28-0.52c1.92,4.22,6.17,7.17,11.1,7.17c4.96,0,9.24-2.98,11.14-7.24C76.34,18.19,75.58,18.36,74.8,18.51
				z"/>
		</g>
	</g>
</g>
</svg>
