<?xml version="1.0" encoding="utf-8"?>
<!-- Generator: Adobe Illustrator 23.0.1, SVG Export Plug-In . SVG Version: 6.00 Build 0)  -->
<svg version="1.1" id="Layer_1" xmlns="http://www.w3.org/2000/svg" xmlns:xlink="http://www.w3.org/1999/xlink" x="0px" y="0px"
	 viewBox="0 0 215.58 29.13" style="enable-background:new 0 0 215.58 29.13;" xml:space="preserve">
<style type="text/css">
	.st0{fill:#18355F;}
	.st1{fill:#5BA646;}
</style>
<g>
	<g>
		<path class="st0" d="M108.65,23.14l-1.61-4.54h-8.78l-1.61,4.54h-2.29l7.4-20.1h1.81l7.37,20.1H108.65z M102.69,6.12l-3.78,10.61
			h7.51L102.69,6.12z"/>
		<path class="st0" d="M119.2,23.31c-3.5,0-6.15-2.37-6.15-7.11s2.65-7.11,6.15-7.11c1.92,0,3.13,0.51,4.57,2.06l-1.38,1.3
			c-1.04-1.16-1.86-1.55-3.19-1.55c-1.36,0-2.48,0.54-3.22,1.58c-0.65,0.9-0.9,1.98-0.9,3.73s0.25,2.82,0.9,3.73
			c0.73,1.04,1.86,1.58,3.22,1.58c1.33,0,2.15-0.42,3.19-1.58l1.38,1.33C122.34,22.8,121.12,23.31,119.2,23.31z"/>
		<path class="st0" d="M132.61,23.31c-3.5,0-6.15-2.37-6.15-7.11s2.65-7.11,6.15-7.11c1.92,0,3.13,0.51,4.57,2.06l-1.38,1.3
			c-1.04-1.16-1.86-1.55-3.19-1.55c-1.36,0-2.48,0.54-3.22,1.58c-0.65,0.9-0.9,1.98-0.9,3.73s0.25,2.82,0.9,3.73
			c0.73,1.04,1.86,1.58,3.22,1.58c1.33,0,2.15-0.42,3.19-1.58l1.38,1.33C135.74,22.8,134.53,23.31,132.61,23.31z"/>
		<path class="st0" d="M140.94,5.3V3.02h2.29V5.3H140.94z M141.05,23.14V9.25h2.03v13.89H141.05z"/>
		<path class="st0" d="M156.49,23.14v-1.67c-1.13,1.47-2.43,1.83-3.95,1.83c-1.41,0-2.65-0.48-3.39-1.21
			c-1.41-1.41-1.69-3.73-1.69-5.9s0.28-4.49,1.69-5.9c0.73-0.73,1.98-1.21,3.39-1.21c1.52,0,2.79,0.34,3.92,1.78V3.04h2.03v20.1
			H156.49z M152.99,10.89c-3.02,0-3.5,2.6-3.5,5.31s0.48,5.31,3.5,5.31s3.47-2.6,3.47-5.31S156.01,10.89,152.99,10.89z"/>
		<path class="st0" d="M164.85,16.73c0,3.05,1.44,4.8,4.09,4.8c1.61,0,2.54-0.48,3.64-1.58l1.38,1.21
			c-1.41,1.41-2.71,2.14-5.08,2.14c-3.67,0-6.07-2.2-6.07-7.11c0-4.49,2.17-7.11,5.7-7.11c3.58,0,5.7,2.6,5.7,6.72v0.93H164.85z
			 M171.76,12.9c-0.54-1.27-1.78-2.09-3.25-2.09s-2.71,0.82-3.25,2.09c-0.31,0.76-0.37,1.19-0.42,2.31h7.34
			C172.13,14.08,172.07,13.66,171.76,12.9z"/>
		<path class="st0" d="M187.43,23.14v-8.55c0-2.46-1.33-3.7-3.42-3.7s-3.44,1.27-3.44,3.7v8.55h-2.03V9.25h2.03v1.52
			c0.99-1.13,2.34-1.69,3.9-1.69c1.5,0,2.71,0.45,3.56,1.3c0.99,0.96,1.44,2.26,1.44,3.87v8.89H187.43z"/>
		<path class="st0" d="M198.3,23.14c-2.37,0-3.56-1.67-3.56-3.73v-8.52h-1.75V9.34h1.75V4.99h2.03v4.35h2.96v1.55h-2.96v8.47
			c0,1.27,0.59,2.03,1.89,2.03h1.07v1.75H198.3z"/>
		<path class="st0" d="M208.15,23.31c-2.34,0-4.18-0.54-5.7-2l1.35-1.35c1.1,1.16,2.6,1.61,4.32,1.61c2.29,0,3.7-0.82,3.7-2.46
			c0-1.21-0.71-1.89-2.31-2.03l-2.29-0.2c-2.71-0.23-4.15-1.44-4.15-3.73c0-2.54,2.15-4.06,5.11-4.06c1.98,0,3.75,0.48,5,1.5
			l-1.33,1.33c-0.99-0.76-2.26-1.1-3.7-1.1c-2.03,0-3.11,0.88-3.11,2.29c0,1.19,0.68,1.89,2.43,2.03l2.23,0.2
			c2.43,0.23,4.09,1.16,4.09,3.75C213.79,21.76,211.51,23.31,208.15,23.31z"/>
	</g>
	<g>
		<path class="st0" d="M1.13,23.46V20.3L9.71,6.86H1.5v-3.5h12.84v3.1L5.73,19.96h8.61v3.5H1.13z"/>
		<path class="st0" d="M17.81,23.46V3.36h13.24v3.5h-9.32v4.71h7.93v3.5h-7.93v4.88h9.32v3.5H17.81z"/>
		<path class="st0" d="M45.56,23.46l-3.92-8.02h-2.82v8.02h-3.92V3.36h7.88c4.09,0,6.52,2.79,6.52,6.15c0,2.82-1.72,4.57-3.67,5.28
			l4.49,8.67H45.56z M42.51,6.86h-3.7v5.31h3.7c1.72,0,2.85-1.1,2.85-2.65S44.23,6.86,42.51,6.86z"/>
	</g>
	<g id="XMLID_28_">
		<g id="XMLID_29_">
			<g>
				<path id="XMLID_21_" class="st1" d="M79.31,14.59c-0.48-0.36-0.95-0.65-1.36-0.88c0-0.04,0-0.09,0-0.13
					c0-3.75-1.71-7.1-4.39-9.31v4.76c0,0.54-0.45,0.99-0.99,0.99c-0.55,0-0.99-0.44-0.99-0.99V2.94c-1.2-0.64-2.51-1.09-3.91-1.29
					v3.73c0,0.95-0.77,1.72-1.72,1.72c-0.95,0-1.72-0.77-1.72-1.72V1.62c-1.47,0.2-2.85,0.66-4.1,1.34v6.07
					c0,0.54-0.44,0.99-0.99,0.99c-0.54,0-0.99-0.44-0.99-0.99V4.31c-2.65,2.21-4.34,5.54-4.34,9.27c0,0-1.97,1.06-1.92,1.95
					c0.05,0.9,1.08,1.37,1.7,1.7c0,0,0.29,0.17,0.93,0.4c1.53,0.57,5.07,1.53,11.46,1.53c0,0,7.08,0,11.29-1.57
					c0.88-0.33,1.65-0.73,2.18-1.21C79.45,16.38,80.67,15.6,79.31,14.59z"/>
				<path id="XMLID_20_" class="st1" d="M74.8,19.13c-1.84,2.97-5.13,4.95-8.87,4.95c-3.71,0-6.98-1.95-8.83-4.88
					c-0.91-0.17-1.66-0.35-2.28-0.52c1.92,4.22,6.17,7.17,11.1,7.17c4.96,0,9.24-2.98,11.14-7.24
					C76.34,18.81,75.58,18.99,74.8,19.13z"/>
			</g>
		</g>
	</g>
</g>
</svg>
