<?xml version="1.0" encoding="utf-8"?>
<!-- Generator: Adobe Illustrator 23.0.1, SVG Export Plug-In . SVG Version: 6.00 Build 0)  -->
<svg version="1.1" id="Layer_1" xmlns="http://www.w3.org/2000/svg" xmlns:xlink="http://www.w3.org/1999/xlink" x="0px" y="0px"
	 viewBox="0 0 160.89 29.13" style="enable-background:new 0 0 160.89 29.13;" xml:space="preserve">
<style type="text/css">
	.st0{fill:#18355F;}
	.st1{fill:#5BA646;}
</style>
<g>
	<g>
		<path class="st0" d="M105.66,23.14v-9.17h-9.54v9.17h-2.15V3.04h2.15v9h9.54v-9h2.14v20.1H105.66z"/>
		<path class="st0" d="M121.12,23.14v-1.33c-1.13,1.13-2.14,1.5-4.01,1.5c-1.92,0-3.05-0.37-3.92-1.27
			c-0.68-0.68-1.04-1.72-1.04-2.82c0-2.43,1.69-4.01,4.8-4.01h4.18v-1.33c0-2.03-1.02-3.05-3.56-3.05c-1.78,0-2.68,0.42-3.5,1.58
			l-1.38-1.27c1.24-1.61,2.65-2.06,4.91-2.06c3.73,0,5.56,1.61,5.56,4.63v9.43H121.12z M121.12,16.73h-3.9
			c-2.09,0-3.1,0.85-3.1,2.46s0.99,2.37,3.19,2.37c1.19,0,2.23-0.08,3.11-0.93c0.48-0.45,0.71-1.24,0.71-2.4V16.73z"/>
		<path class="st0" d="M135.86,11.91c-0.76-0.76-1.33-1.02-2.4-1.02c-2.03,0-3.33,1.61-3.33,3.73v8.53h-2.03V9.25h2.03v1.69
			c0.76-1.16,2.29-1.86,3.9-1.86c1.33,0,2.34,0.31,3.33,1.3L135.86,11.91z"/>
		<path class="st0" d="M157.82,23.14v-8.55c0-2.46-1.33-3.7-3.42-3.7c-2.03,0-3.47,1.27-3.47,3.47v8.78h-2.03v-8.55
			c0-2.46-1.33-3.7-3.42-3.7s-3.47,1.27-3.47,3.7v8.55h-2.03V9.25h2.03v1.52c0.99-1.13,2.37-1.69,3.92-1.69
			c1.92,0,3.42,0.79,4.26,2.31c1.07-1.52,2.63-2.31,4.57-2.31c1.5,0,2.74,0.48,3.59,1.3c0.99,0.96,1.5,2.26,1.5,3.87v8.89H157.82z"
			/>
	</g>
	<g>
		<path class="st0" d="M1.13,23.46V20.3L9.71,6.86H1.5v-3.5h12.84v3.1L5.73,19.96h8.61v3.5H1.13z"/>
		<path class="st0" d="M17.81,23.46V3.36h13.24v3.5h-9.32v4.71h7.93v3.5h-7.93v4.88h9.32v3.5H17.81z"/>
		<path class="st0" d="M45.56,23.46l-3.92-8.02h-2.82v8.02h-3.92V3.36h7.88c4.09,0,6.52,2.79,6.52,6.15c0,2.82-1.72,4.57-3.67,5.28
			l4.49,8.67H45.56z M42.51,6.86h-3.7v5.31h3.7c1.72,0,2.85-1.1,2.85-2.65S44.23,6.86,42.51,6.86z"/>
	</g>
	<g id="XMLID_11_">
		<g id="XMLID_12_">
			<g>
				<path id="XMLID_19_" class="st1" d="M79.31,14.59c-0.48-0.36-0.95-0.65-1.36-0.88c0-0.04,0-0.09,0-0.13
					c0-3.75-1.71-7.1-4.39-9.31v4.76c0,0.54-0.45,0.99-0.99,0.99c-0.55,0-0.99-0.44-0.99-0.99V2.94c-1.2-0.64-2.51-1.09-3.91-1.29
					v3.73c0,0.95-0.77,1.72-1.72,1.72c-0.95,0-1.72-0.77-1.72-1.72V1.62c-1.47,0.2-2.85,0.66-4.1,1.34v6.07
					c0,0.54-0.44,0.99-0.99,0.99c-0.54,0-0.99-0.44-0.99-0.99V4.31c-2.65,2.21-4.34,5.54-4.34,9.27c0,0-1.97,1.06-1.92,1.95
					c0.05,0.9,1.08,1.37,1.7,1.7c0,0,0.29,0.17,0.93,0.4c1.53,0.57,5.07,1.53,11.46,1.53c0,0,7.08,0,11.29-1.57
					c0.88-0.33,1.65-0.73,2.18-1.21C79.45,16.38,80.67,15.6,79.31,14.59z"/>
				<path id="XMLID_18_" class="st1" d="M74.8,19.13c-1.84,2.97-5.13,4.95-8.87,4.95c-3.71,0-6.98-1.95-8.83-4.88
					c-0.91-0.17-1.66-0.35-2.28-0.52c1.92,4.22,6.17,7.17,11.1,7.17c4.96,0,9.24-2.98,11.14-7.24
					C76.34,18.81,75.58,18.99,74.8,19.13z"/>
			</g>
		</g>
	</g>
</g>
</svg>
