<svg id="ehZaKNV1XSD1" xmlns="http://www.w3.org/2000/svg" xmlns:xlink="http://www.w3.org/1999/xlink" viewBox="0 0 50 50" shape-rendering="geometricPrecision" text-rendering="geometricPrecision"><style><![CDATA[#ehZaKNV1XSD4_to {animation: ehZaKNV1XSD4_to__to 3000ms linear infinite normal forwards}@keyframes ehZaKNV1XSD4_to__to { 0% {transform: translate(25.049999px,7.9px)} 23.333333% {transform: translate(20.899055px,7.9px)} 43.333333% {transform: translate(24.95px,7.9px)} 100% {transform: translate(24.95px,7.9px)}}]]></style><g><g><g id="ehZaKNV1XSD4_to" transform="translate(25.049999,7.9)"><g transform="translate(-25.049999,-7.899999)"><path d="M18.9,5.8v-3.3c0-.8.6-1.4,1.4-1.4h9.3c.8,0,1.4.6,1.4,1.4v3.2" fill="none" stroke="#fff" stroke-width="1.5" stroke-linecap="round" stroke-linejoin="round" stroke-miterlimit="10"/><path d="M41.6,5.8h-33.2C7.6,5.8,7,6.4,7,7.2v6.1c0,.8.6,1.4,1.4,1.4h33.3c.8,0,1.4-.6,1.4-1.4v-6.1c0-.8-.7-1.4-1.5-1.4Z" fill="none" stroke="#fff" stroke-width="1.5" stroke-linecap="round" stroke-linejoin="round" stroke-miterlimit="10"/></g></g><path d="M9.2,14.7l2.3,32.8c.1.8.7,1.3,1.4,1.3h24.1c.8,0,1.4-.6,1.4-1.3l2.3-32.8" fill="none" stroke="#fff" stroke-width="1.5" stroke-linecap="round" stroke-linejoin="round" stroke-miterlimit="10"/></g><g><line x1="19.3" y1="20.1" x2="20.2" y2="43.2" fill="none" stroke="#19355f" stroke-width="1.5" stroke-linecap="round" stroke-linejoin="round" stroke-miterlimit="10" stroke-dasharray="23.117526"/><line x1="30.7" y1="20.1" x2="29.8" y2="43.2" fill="none" stroke="#19355f" stroke-width="1.5" stroke-linecap="round" stroke-linejoin="round" stroke-miterlimit="10" stroke-dasharray="23.117526"/></g></g></svg>