<svg id="ehMrWuvCKmA1" xmlns="http://www.w3.org/2000/svg" xmlns:xlink="http://www.w3.org/1999/xlink" viewBox="0 0 50 50" shape-rendering="geometricPrecision" text-rendering="geometricPrecision"><style><![CDATA[#ehMrWuvCKmA2_tr {animation: ehMrWuvCKmA2_tr__tr 6000ms linear infinite normal forwards}@keyframes ehMrWuvCKmA2_tr__tr { 0% {transform: translate(24.949999px,24.999999px) rotate(0deg)} 100% {transform: translate(24.949999px,24.999999px) rotate(360deg)}}]]></style><g id="ehMrWuvCKmA2_tr" transform="translate(24.949999,24.999999) rotate(0)"><g transform="translate(-24.949999,-24.999999)"><path d="M22.2,4.6C12.2,5.9,4.4,14.6,4.4,25c0,4.1,1.2,7.8,3.2,11c1.3,2.1,4.1,2.5,6,.9v0c1.4-1.3,1.8-3.4.7-5-1.3-2-2-4.4-2-6.9c0-6.1,4.2-11.1,9.9-12.4" fill="none" stroke="#fff" stroke-width="1.5" stroke-linecap="round" stroke-linejoin="round" stroke-miterlimit="10"/><path d="M28,37.4C33.6,36,37.7,31,37.7,25c0-2.7-.8-5.1-2.2-7.2-1.1-1.6-.8-3.8.7-5.1v0c1.8-1.5,4.5-1.2,5.8.7c2.2,3.3,3.5,7.3,3.5,11.5c0,10.4-7.6,18.9-17.6,20.4" fill="none" stroke="#fff" stroke-width="1.5" stroke-linecap="round" stroke-linejoin="round" stroke-miterlimit="10"/><path d="M25.6,34.6l-7.8,5.8c-.8.6-.8,1.8,0,2.4l7.8,5.8c1,.7,2.4,0,2.4-1.2v-11.5c0-1.3-1.4-2-2.4-1.3Z" fill="none" stroke="#19355f" stroke-width="1.5" stroke-linecap="round" stroke-linejoin="round" stroke-miterlimit="10"/><path d="M24.7,1.4l7.8,5.8c.8.6.8,1.8,0,2.4l-7.8,5.8c-1,.7-2.4,0-2.4-1.2v-11.6c-.1-1.2,1.4-1.9,2.4-1.2Z" fill="none" stroke="#19355f" stroke-width="1.5" stroke-linecap="round" stroke-linejoin="round" stroke-miterlimit="10"/></g></g></svg>