<svg id="eNEqpUn2PWs1" xmlns="http://www.w3.org/2000/svg" xmlns:xlink="http://www.w3.org/1999/xlink" viewBox="0 0 50 50" shape-rendering="geometricPrecision" text-rendering="geometricPrecision"><style><![CDATA[#eNEqpUn2PWs3 {animation: eNEqpUn2PWs3_s_do 6000ms linear infinite normal forwards}@keyframes eNEqpUn2PWs3_s_do { 0% {stroke-dashoffset: 64.450851} 25% {stroke-dashoffset: 64.450851} 75% {stroke-dashoffset: 0} 100% {stroke-dashoffset: 0}} #eNEqpUn2PWs7 {animation: eNEqpUn2PWs7_s_do 6000ms linear infinite normal forwards}@keyframes eNEqpUn2PWs7_s_do { 0% {stroke-dashoffset: -106.4} 50% {stroke-dashoffset: 0} 100% {stroke-dashoffset: 0}}]]></style><g><path id="eNEqpUn2PWs3" d="M6.8,30.1L3.2,32c-.9.5-1,1.8-.1,2.3L24.1,47c.4.3,1,.3,1.4,0L46.8,34.3c.9-.5.9-1.8-.1-2.3l-3.4-1.9" fill="none" stroke="#fff" stroke-width="1.5" stroke-linecap="round" stroke-linejoin="round" stroke-miterlimit="10" stroke-dashoffset="64.450851" stroke-dasharray="64.450851"/><path d="M7.1,19.6L1.8,22.4c-.4.2-.7.7-.7,1.2v2.2c0,.5.2.9.6,1.1L24.1,40.4c.4.3,1,.3,1.4,0L48.2,26.9c.4-.2.7-.7.7-1.2v-2.2c0-.5-.3-.9-.7-1.2L43,19.4" fill="none" stroke="#5ba545" stroke-width="1.5" stroke-linecap="round" stroke-linejoin="round" stroke-miterlimit="10"/><path d="M1.3,22.9L24.2,36.5c.4.3.9.3,1.4,0L48.6,23" fill="none" stroke="#5ba545" stroke-width="1.5" stroke-linecap="round" stroke-linejoin="round" stroke-miterlimit="10"/><line x1="24.9" y1="36.9" x2="24.9" y2="40.7" fill="none" stroke="#5ba545" stroke-width="1.5" stroke-linecap="round" stroke-linejoin="round" stroke-miterlimit="10"/><path id="eNEqpUn2PWs7" d="M3.1,14.9L24.2,3c.4-.2.9-.2,1.3,0L46.8,14.9c.9.5.9,1.8,0,2.3L25.6,29.9c-.4.3-1,.3-1.4,0L3.1,17.2c-.9-.5-.9-1.8,0-2.3Z" fill="none" stroke="#fff" stroke-width="1.5" stroke-linecap="round" stroke-linejoin="round" stroke-miterlimit="10" stroke-dashoffset="-106.4" stroke-dasharray="106.404068"/></g></svg>