<?xml version="1.0" encoding="utf-8"?>
<!-- Generator: Adobe Illustrator 23.0.1, SVG Export Plug-In . SVG Version: 6.00 Build 0)  -->
<svg version="1.1" id="Layer_1" xmlns="http://www.w3.org/2000/svg" xmlns:xlink="http://www.w3.org/1999/xlink" x="0px" y="0px"
	 viewBox="0 0 124.3 90.7" style="enable-background:new 0 0 124.3 90.7;" xml:space="preserve">
<style type="text/css">
	.st0{fill:#5BA646;}
	.st1{fill:#14325C;}
</style>
<g>
	<path id="XMLID_12_" class="st0" d="M84.5,47L84.5,47C84.5,47.1,84.5,47.1,84.5,47L84.5,47z"/>
	<path id="XMLID_11_" class="st1" d="M96.3,39.6L49,22.6l0,0L34.3,40.1c-2.9,3.5-3,7.4,0,8.4l14.6,5.3l49.3-9.3
		C98.9,42.3,98.2,40.3,96.3,39.6z"/>
	<path class="st1" d="M59.1,15.3c-2.6,0.5-5.3,2.1-7.4,4.4l36.5,12.7l3.7-0.7c5.2-1,10.7-4.3,14.5-8.8l18-21.5L59.1,15.3z
		 M33.6,60.4c-5.2,1-10.7,4.3-14.5,8.8l-18,21.5L68.8,78c2.7-0.5,5.7-2.3,7.7-4.8l20-24.7c0,0,0,0,0-0.1l-44,8.3L33.6,60.4z"/>
	<path id="XMLID_10_" class="st0" d="M48.9,22.6L48.9,22.6L48.9,22.6z"/>
	<path id="XMLID_9_" class="st0" d="M48.9,22.6L48.9,22.6L48.9,22.6z"/>
</g>
</svg>
