<?xml version="1.0" encoding="utf-8"?>
<!-- Generator: Adobe Illustrator 17.0.0, SVG Export Plug-In . SVG Version: 6.00 Build 0)  -->
<!DOCTYPE svg PUBLIC "-//W3C//DTD SVG 1.1//EN" "http://www.w3.org/Graphics/SVG/1.1/DTD/svg11.dtd">
<svg version="1.1" id="Layer_1" xmlns="http://www.w3.org/2000/svg" xmlns:xlink="http://www.w3.org/1999/xlink" x="0px" y="0px"
	 width="106.333px" height="63.5px" viewBox="0 0 106.333 63.5" enable-background="new 0 0 106.333 63.5" xml:space="preserve">
<path fill="#18355F" d="M58.268,29.413H58.26c-0.009,0.017-0.017,0.029-0.025,0.046L58.268,29.413z"/>
<path fill="#18355F" d="M102.654,27.019L31.148,1.356L9.069,27.768c-4.46,5.323-4.46,11.128-0.015,12.747l22.112,8.004l74.451-14.01
	C106.615,31.054,105.65,28.091,102.654,27.019"/>
<path fill="#18355F" d="M72.941,77.805l30.244-37.265c0.033-0.025,0.048-0.058,0.064-0.081L36.753,52.971L8.07,58.368
	c-7.907,1.489-16.168,6.513-21.853,13.31"/>
<path fill="#18355F" d="M30.467,10.351l0.009-0.021L30.467,10.351z"/>
<path fill="#18355F" d="M30.476,10.33h0.009H30.476z"/>
</svg>
