<?xml version="1.0" encoding="utf-8"?>
<!-- Generator: Adobe Illustrator 23.0.1, SVG Export Plug-In . SVG Version: 6.00 Build 0)  -->
<svg version="1.1" id="Layer_1" xmlns="http://www.w3.org/2000/svg" xmlns:xlink="http://www.w3.org/1999/xlink" x="0px" y="0px"
	 viewBox="0 0 50 50" style="enable-background:new 0 0 50 50;" xml:space="preserve">
<style type="text/css">
	.st0{fill:#FFFFFF;}
</style>
<g id="XMLID_15012_">
	<rect id="XMLID_17234_" x="11" y="10.3" class="st0" width="1.5" height="2.7"/>
	<rect id="XMLID_17241_" x="18.5" y="10.3" class="st0" width="1.5" height="2.7"/>
	<rect id="XMLID_17249_" x="11" y="18.9" class="st0" width="1.5" height="2.7"/>
	<rect id="XMLID_17257_" x="18.5" y="18.9" class="st0" width="1.5" height="2.7"/>
	<rect id="XMLID_17265_" x="11" y="27.5" class="st0" width="1.5" height="2.7"/>
	<rect id="XMLID_17273_" x="18.5" y="27.5" class="st0" width="1.5" height="2.7"/>
	<rect id="XMLID_17282_" x="11" y="36.1" class="st0" width="1.5" height="2.7"/>
	<rect id="XMLID_17290_" x="18.5" y="36.1" class="st0" width="1.5" height="2.7"/>
	<rect id="XMLID_17298_" x="33" y="18.9" class="st0" width="1.5" height="2.7"/>
	<rect id="XMLID_17306_" x="33" y="27.5" class="st0" width="1.5" height="2.7"/>
	<g id="XMLID_14865_">
		<path id="XMLID_15032_" class="st0" d="M46.1,48.5H27.6V11.7h12.1c0.2,0,0.3,0.1,0.3,0.3v20.8c0.2,0,0.5-0.1,0.7-0.1
			s0.5,0,0.7,0.1V10.6c0-0.2-0.1-0.3-0.3-0.3H27.6V4.6c0-0.2-0.1-0.3-0.3-0.3h-1.8c-0.2,0-0.3-0.1-0.3-0.3V0.3C25.1,0.1,25,0,24.8,0
			H6.3C6.1,0,6,0.1,6,0.3V4c0,0.2-0.1,0.3-0.3,0.3H3.8c-0.2,0-0.3,0.1-0.3,0.3v45.1c0,0.2,0.1,0.3,0.3,0.3h42.3
			c0.2,0,0.3-0.1,0.3-0.3v-0.9C46.4,48.6,46.3,48.5,46.1,48.5z M26.1,48.5H5.3c-0.2,0-0.3-0.1-0.3-0.3V6.1c0-0.2,0.1-0.3,0.3-0.3
			h1.8c0.2,0,0.3-0.1,0.3-0.3V1.8c0-0.2,0.1-0.3,0.3-0.3h15.6c0.2,0,0.3,0.1,0.3,0.3v3.7c0,0.2,0.1,0.3,0.3,0.3h1.8
			c0.2,0,0.3,0.1,0.3,0.3v42.4H26.1z"/>
		<g id="XMLID_14866_">
			<path id="XMLID_14868_" class="st0" d="M42,33l-0.6-0.1l0,0c-0.2,0-0.5-0.1-0.7-0.1c-0.3,0-0.5,0-0.7,0.1l0,0L39.6,33
				c-2.4,0.6-4.3,2.5-4.6,5c-0.4,3,1.6,5.7,4.4,6.4l0.6,0.1l0,0c0.2,0,0.5,0.1,0.7,0.1c0.3,0,0.5,0,0.7-0.1l0,0l0.4-0.1
				c2.6-0.6,4.7-2.9,4.7-5.6C46.5,36,44.7,33.6,42,33z M41.5,43.2l-0.3,0.1l0,0c-0.2,0-0.4,0-0.6,0c-0.2,0-0.4,0-0.6,0l0,0l-0.5-0.1
				c-2.3-0.5-3.8-2.7-3.6-5.1c0.2-2,1.8-3.6,3.7-4l0.3-0.1l0,0c0.2,0,0.4,0,0.6,0c0.2,0,0.4,0,0.6,0l0,0l0.5,0.1
				c2.2,0.5,3.6,2.4,3.6,4.6C45.3,40.9,43.7,42.7,41.5,43.2z"/>
			<path id="XMLID_15030_" class="st0" d="M40.7,44.5c-0.3,0-0.5,0-0.7-0.1v4l0,0l0,0h1.5v-4.1C41.2,44.5,40.9,44.5,40.7,44.5z"/>
		</g>
	</g>
</g>
</svg>
