<?xml version="1.0" encoding="utf-8"?>
<!-- Generator: Adobe Illustrator 19.0.0, SVG Export Plug-In . SVG Version: 6.00 Build 0)  -->
<svg version="1.1" id="Layer_1" xmlns="http://www.w3.org/2000/svg" xmlns:xlink="http://www.w3.org/1999/xlink" x="0px" y="0px"
	 viewBox="0 0 50 50" style="enable-background:new 0 0 50 50;" xml:space="preserve">
<style type="text/css">
	.st0{fill:#FFFFFF;}
</style>
<g id="XMLID_14765_">
	<path id="XMLID_16844_" class="st0" d="M13.2,31.9h-2.5c-0.3,0-0.6,0.3-0.6,0.6V35c0,0.3,0.3,0.6,0.6,0.6h2.5
		c0.3,0,0.6-0.3,0.6-0.6v-2.5C13.8,32.2,13.5,31.9,13.2,31.9z M12.6,34.4h-1.2v-1.2h1.2V34.4z"/>
	<path id="XMLID_16841_" class="st0" d="M23.9,40.5h2.5c0.3,0,0.6-0.3,0.6-0.6v-2.5c0-0.3-0.3-0.6-0.6-0.6h-2.5
		c-0.3,0-0.6,0.3-0.6,0.6v2.5c0,0.2,0.1,0.3,0.2,0.4C23.6,40.5,23.7,40.5,23.9,40.5z M24.5,38.1h1.2v1.2h-1.2V38.1z"/>
	<path id="XMLID_16838_" class="st0" d="M32,40.5h2.5c0.2,0,0.3-0.1,0.4-0.2c0.1-0.1,0.2-0.3,0.2-0.4v-2.5c0-0.3-0.3-0.6-0.6-0.6H32
		c-0.3,0-0.6,0.3-0.6,0.6v2.5C31.4,40.3,31.6,40.5,32,40.5z M32.6,38.1h1.2v1.2h-1.2V38.1z"/>
	<path id="XMLID_16835_" class="st0" d="M40.1,40.5h2.5c0.3,0,0.6-0.3,0.6-0.6v-2.5c0-0.3-0.3-0.6-0.6-0.6h-2.5
		c-0.3,0-0.6,0.3-0.6,0.6v2.5C39.5,40.3,39.7,40.5,40.1,40.5z M40.7,38.1h1.2v1.2h-1.2V38.1z"/>
	<path id="XMLID_16764_" class="st0" d="M48.8,46.3h-1.9V30.5c0-0.3-0.3-0.6-0.6-0.6h-5.1l0-0.1l-0.8-17.4h-1.3l0,0.1l0.8,17.5h-7.8
		l0-0.1l0.8-17.4h-1.3l0,0l-0.8,17.5h-10v-3.6h1.9c0.3,0,0.6-0.3,0.6-0.6v-2.5c0-0.3-0.3-0.6-0.6-0.6H1.2c-0.3,0-0.6,0.3-0.6,0.6
		v2.5c0,0.3,0.3,0.6,0.6,0.6h1.9v20H1.2c-0.3,0-0.6,0.3-0.6,0.6v2.5c0,0.3,0.3,0.6,0.6,0.6h47.5c0.3,0,0.6-0.3,0.6-0.6v-2.5
		C49.4,46.6,49.1,46.3,48.8,46.3z M45.6,31.1v15.2H20.8V31.1L45.6,31.1z M1.9,25v-1.2H22V25H1.9z M14.4,38h-5
		c-0.3,0-0.6,0.3-0.6,0.6v7.6H4.4v-20h15.2v20h-4.5v-7.6C15.1,38.3,14.8,38,14.4,38z M13.8,39.3v7h-3.7v-7H13.8z M48.1,48.7H1.9
		v-1.2h46.2V48.7z"/>
	<path id="XMLID_16761_" class="st0" d="M39.1,12.3h1.3l0,0l0.1,0c0.2-0.1,0.4-0.3,0.4-0.6V9.2c0-0.3-0.3-0.6-0.6-0.6h-8.3
		c-0.3,0-0.6,0.3-0.6,0.6v2.5c0,0.2,0.1,0.5,0.4,0.6l0.1,0l0,0h1.3H39.1z M32.5,9.8h7V11h-7V9.8z"/>
	<g id="XMLID_16865_">
		<path id="XMLID_14845_" class="st0" d="M34.1,7.7c-0.3,0-0.5-0.2-0.5-0.5V3.2c0-1.8,1.5-3.2,3.2-3.2h8.5c0.3,0,0.5,0.2,0.5,0.5
			S45.6,1,45.3,1h-8.5c-1.2,0-2.3,1-2.3,2.3v3.9C34.6,7.5,34.4,7.7,34.1,7.7z"/>
	</g>
	<g id="XMLID_16871_">
		<path id="XMLID_14832_" class="st0" d="M37.9,7.7c-0.3,0-0.5-0.2-0.5-0.5V5.5c0-1.2,0.9-2.1,2.1-2.1h3.8c0.3,0,0.5,0.2,0.5,0.5
			s-0.2,0.5-0.5,0.5h-3.8c-0.6,0-1.1,0.5-1.1,1.1v1.7C38.4,7.5,38.2,7.7,37.9,7.7z"/>
	</g>
</g>
</svg>
