<?xml version="1.0" encoding="utf-8"?>
<!-- Generator: Adobe Illustrator 23.0.1, SVG Export Plug-In . SVG Version: 6.00 Build 0)  -->
<svg version="1.1" id="Layer_1" xmlns="http://www.w3.org/2000/svg" xmlns:xlink="http://www.w3.org/1999/xlink" x="0px" y="0px"
	 viewBox="0 0 50 50" style="enable-background:new 0 0 50 50;" xml:space="preserve">
<style type="text/css">
	.st0{fill:#FFFFFF;}
</style>
<g id="XMLID_10790_">
	<path id="XMLID_10918_" class="st0" d="M49.7,38.1h-0.8c-0.1,0-0.2,0.1-0.2,0.2v0.8c0,0.1,0.1,0.2,0.2,0.2h0.8
		c0.1,0,0.2-0.1,0.2-0.2v-0.8C49.9,38.1,49.9,38.1,49.7,38.1"/>
	<path id="XMLID_10966_" class="st0" d="M28.3,4.5H30h0.8h0.4c0.1,0,0.2-0.1,0.2-0.2v-4c0-0.1-0.1-0.2-0.2-0.2h-8.9
		c-0.3,0-0.3,0-0.3,0.2v4.1c0,0.1,0.1,0.2,0.2,0.2h0.7h0.4h1.6h3.4V4.5z M23.2,3.1V1.5c0-0.1,0.1-0.2,0.2-0.2h6.5
		c0.1,0,0.2,0.1,0.2,0.2v1.6c0,0.1-0.1,0.2-0.2,0.2h-6.5C23.3,3.3,23.2,3.2,23.2,3.1z"/>
	<path id="XMLID_10912_" class="st0" d="M48.5,17.5h1.2c0.1,0,0.2-0.1,0.2-0.2v-0.8c0-0.1-0.1-0.2-0.2-0.2H34.3
		c-0.1,0-0.2,0.1-0.2,0.2v0.8c0,0.1,0.1,0.2,0.2,0.2h1.2c0.1,0,0.2,0.1,0.2,0.2V25c0,0.1-0.1,0.2-0.2,0.2h-1.2
		c-0.1,0-0.2,0.1-0.2,0.2v0.8c0,0.1,0.1,0.2,0.2,0.2h1.2c0.1,0,0.2,0.1,0.2,0.2v7.3c0,0.1-0.1,0.2-0.2,0.2H33
		c-0.1,0-0.2-0.1-0.2-0.2l-3-29.2c0-0.1,0-0.1,0.1-0.2L30,4.4h-1.6c0.1,0,0.2,0.1,0.2,0.2L29,8.8c0,0.1,0,0.1,0,0.2
		c0,0-0.1,0.1-0.2,0.1h-4.3c-0.1,0-0.1,0-0.2-0.1c0,0-0.1-0.1-0.1-0.2l0.4-4.1c0-0.1,0.1-0.2,0.2-0.2h-1.6c0.1,0,0.1,0,0.2,0.1
		c0,0,0.1,0.1,0,0.2L20.3,34c0,0.1-0.1,0.2-0.2,0.2h-0.5h-0.8h-2.1h-3.5h-2H8.5H5.9c-0.1,0-0.2,0.1-0.2,0.2V40
		c0,0.1,0.1,0.2,0.2,0.2h4.5c0.1,0,0.2,0.1,0.2,0.2v8.1c0,0.1-0.1,0.2-0.2,0.2H4.7H3.9H2.3H0.9H0.3c-0.1,0-0.2,0.1-0.2,0.2v0.8
		c0,0.1,0.1,0.2,0.2,0.2h46.2c0.1,0,0.2-0.1,0.2-0.2v-0.8c0-0.1-0.1-0.2-0.2-0.2h-1.2c-0.1,0-0.2-0.1-0.2-0.2v-8.1
		c0-0.1,0.1-0.2,0.2-0.2h4.5c0.1,0,0.2-0.1,0.2-0.2v-5.7c0-0.1-0.1-0.2-0.2-0.2h-1.2c-0.1,0-0.2-0.1-0.2-0.2v-7.3
		c0-0.1,0.1-0.2,0.2-0.2h1.2c0.1,0,0.2-0.1,0.2-0.2v-0.8c0-0.1-0.1-0.2-0.2-0.2h-1.2c-0.1,0-0.2-0.1-0.2-0.2v-7.3
		C48.3,17.6,48.4,17.5,48.5,17.5z M37,17.7c0-0.1,0.1-0.2,0.2-0.2h9.7c0.1,0,0.2,0.1,0.2,0.2V25c0,0.1-0.1,0.2-0.2,0.2h-9.7
		c-0.1,0-0.2-0.1-0.2-0.2V17.7z M37,26.6c0-0.1,0.1-0.2,0.2-0.2h9.7c0.1,0,0.2,0.1,0.2,0.2v7.3c0,0.1-0.1,0.2-0.2,0.2h-9.7
		c-0.1,0-0.2-0.1-0.2-0.2V26.6z M30.8,26.6l0.7,6.8c0,0.1,0,0.2-0.1,0.2s-0.2,0-0.2,0l-6.8-6.8c-0.1-0.1-0.1-0.1,0-0.2
		c0-0.1,0.1-0.1,0.2-0.1h6.1C30.7,26.4,30.8,26.5,30.8,26.6z M29.8,18.3c0.1,0,0.2,0.1,0.2,0.2l0.6,5.8c0,0.1,0,0.2-0.1,0.2
		s-0.2,0-0.2,0L25,18.6c-0.1-0.1-0.1-0.1,0-0.2c0-0.1,0.1-0.1,0.2-0.1H29.8z M25.6,10.3c0-0.1,0.1-0.1,0.2-0.1H29
		c0.1,0,0.2,0.1,0.2,0.2l0.6,5.3c0,0.1,0,0.2-0.1,0.2s-0.2,0-0.2-0.1l-3.7-5.3C25.5,10.4,25.5,10.4,25.6,10.3z M24,11.1
		c0-0.1,0.1-0.2,0.2-0.2l0,0c0.1,0,0.1,0,0.2,0.1l4.1,5.8c0,0.1,0,0.1,0,0.2s-0.1,0.1-0.2,0.1h-4.7c-0.1,0-0.1,0-0.1-0.1
		c0,0-0.1-0.1-0.1-0.2L24,11.1z M23.2,18.9c0-0.1,0.1-0.1,0.1-0.2c0,0,0,0,0.1,0s0.1,0,0.2,0.1l5.4,6c0.1,0.1,0.1,0.1,0,0.2
		c0,0.1-0.1,0.1-0.2,0.1h-6.1c-0.1,0-0.1,0-0.2-0.1c0,0-0.1-0.1,0-0.2L23.2,18.9z M22.4,26.9c0-0.1,0.1-0.1,0.1-0.2c0,0,0,0,0.1,0
		s0.1,0,0.1,0.1l7,7c0.1,0.1,0.1,0.1,0,0.2c0,0.1-0.1,0.1-0.2,0.1h-7.7c-0.1,0-0.1,0-0.1-0.1c0,0-0.1-0.1-0.1-0.2L22.4,26.9z
		 M18.7,45.3c0,0.1-0.1,0.2-0.2,0.2h-0.4c-0.1,0-0.2,0.1-0.2,0.2v0.8c0,0.1,0.1,0.2,0.2,0.2h0.4c0.1,0,0.2,0.1,0.2,0.2v1.6
		c0,0.1-0.1,0.2-0.2,0.2H12c-0.1,0-0.2-0.1-0.2-0.2v-1.6c0-0.1,0.1-0.2,0.2-0.2h3.7c0.1,0,0.2-0.1,0.2-0.2v-0.8
		c0-0.1-0.1-0.2-0.2-0.2H12c-0.1,0-0.2-0.1-0.2-0.2v-4.9c0-0.1,0.1-0.2,0.2-0.2h6.5c0.1,0,0.2,0.1,0.2,0.2V45.3z M35.7,48.5
		c0,0.1-0.1,0.2-0.2,0.2H20.1c-0.1,0-0.2-0.1-0.2-0.2v-8.1c0-0.1,0.1-0.2,0.2-0.2h15.4c0.1,0,0.2,0.1,0.2,0.2V48.5z M43.9,45.3
		c0,0.1-0.1,0.2-0.2,0.2h-0.4c-0.1,0-0.2,0.1-0.2,0.2v0.8c0,0.1,0.1,0.2,0.2,0.2h0.4c0.1,0,0.2,0.1,0.2,0.2v1.6
		c0,0.1-0.1,0.2-0.2,0.2h-6.5c-0.1,0-0.2-0.1-0.2-0.2v-1.6c0-0.1,0.1-0.2,0.2-0.2h3.7c0.1,0,0.2-0.1,0.2-0.2v-0.8
		c0-0.1-0.1-0.2-0.2-0.2h-3.7c-0.1,0-0.2-0.1-0.2-0.2v-4.9c0-0.1,0.1-0.2,0.2-0.2h6.5c0.1,0,0.2,0.1,0.2,0.2V45.3z M48.5,35.3
		c0.1,0,0.2,0.1,0.2,0.2v3.2c0,0.1-0.1,0.2-0.2,0.2H7.2c-0.1,0-0.2-0.1-0.2-0.2v-3.2c0-0.1,0.1-0.2,0.2-0.2H48.5z"/>
	<path id="XMLID_10984_" class="st0" d="M6.2,19.1V19c-0.2-1.6-1.5-2.7-3-2.7c-1.7,0-3,1.4-3,3c0,1.4,0.9,2.6,2.3,2.9
		c0.1,0,0.1,0.1,0.1,0.2v26.1c0,0.1-0.1,0.2-0.2,0.2H4c-0.1,0-0.2-0.1-0.2-0.2V23.2c0-0.1,0.1-0.2,0.1-0.2s0,0,0.1,0
		c0,0,0,0,0.1,0.1L9,30.2l0,0l2.4,3.5c0,0.1,0,0.1,0,0.2c0,0.1-0.1,0.1-0.2,0.1h2c-0.1,0-0.1,0-0.2-0.1l-1-1.5c0-0.1,0-0.1,0-0.2
		c0-0.1,0.1-0.1,0.2-0.1h3.3c0.1,0,0.1,0,0.2,0.1l1.4,1.6c0.1,0.1,0.1,0.1,0,0.2c0,0.1-0.1,0.1-0.2,0.1H19c-0.1,0-0.1,0-0.2-0.1
		L6.2,19.1z M3.1,21.1c-1,0-1.8-0.8-1.8-1.8s0.8-1.8,1.8-1.8s1.8,0.8,1.8,1.8C4.9,20.3,4.1,21.1,3.1,21.1z M4.9,21.9
		c0-0.1,0-0.1,0.1-0.2c0.3-0.2,0.5-0.5,0.7-0.8c0-0.1,0.1-0.1,0.2-0.1l0,0c0.1,0,0.1,0,0.2,0.1l1.6,1.9c0.1,0.1,0.1,0.2,0,0.2
		c-0.2,0-0.3,0.1-0.3,0L5,22L4.9,21.9z M9.6,28.8c-0.1,0-0.1,0-0.2-0.1l-2.9-4.3c0-0.1,0-0.2,0-0.2s0.1-0.1,0.2-0.1h0.1l3.2,1.3
		c0,0,0.1,0,0.1,0.1l0.7,0.8c0,0.1,0.1,0.1,0,0.2l-0.9,2.2C9.7,28.7,9.7,28.7,9.6,28.8z M14.2,30.8c0,0.1-0.1,0.1-0.2,0.1h-3
		c-0.1,0-0.1,0-0.2-0.1l-0.4-0.5c0-0.1,0-0.1,0-0.2l0.9-2.4c0-0.1,0.1-0.1,0.2-0.1l0,0c0.1,0,0.1,0,0.2,0.1l2.4,2.9
		C14.2,30.6,14.3,30.7,14.2,30.8z"/>
</g>
</svg>
