<?xml version="1.0" encoding="utf-8"?>
<!-- Generator: Adobe Illustrator 19.0.0, SVG Export Plug-In . SVG Version: 6.00 Build 0)  -->
<svg version="1.1" id="Layer_1" xmlns="http://www.w3.org/2000/svg" xmlns:xlink="http://www.w3.org/1999/xlink" x="0px" y="0px"
	 viewBox="0 0 50 50" style="enable-background:new 0 0 50 50;" xml:space="preserve">
<style type="text/css">
	.st0{fill:#FFFFFF;}
</style>
<g id="XMLID_3587_">
	<path id="XMLID_3466_" class="st0" d="M47.9,16.1l-3.6-1.5c-0.6-0.2-1.2-0.3-1.8-0.3l-3.8,0l0,0L24.7,0.7c-0.2-0.2-0.6-0.4-0.9-0.4
		l-4.2,0c-0.3,0-0.6,0.2-0.7,0.4c-0.1,0.3-0.1,0.6,0,0.8l7.5,12.7l-2.9,0c-0.1,0-0.2,0-0.3,0l-6.9,1.2l-0.1,0l-4.8-3.6
		c-0.2-0.1-0.4-0.2-0.6-0.2l-2.4,0c-0.3,0-0.6,0.2-0.8,0.5c-0.2,0.3-0.1,0.6,0,0.9l3.4,5.1l-0.1,0.1l-3.3,5.1
		c-0.2,0.3-0.2,0.6,0,0.9c0.2,0.3,0.4,0.5,0.8,0.5l2.4,0c0.2,0,0.4-0.1,0.6-0.2l4.9-3.7l0.1,0l6.8,1.2c0.1,0,0.2,0,0.3,0l2.9,0
		l-0.1,0.2l-7.4,12.5c-0.2,0.3-0.2,0.6,0,0.8c0.1,0.3,0.4,0.4,0.7,0.4l4.2,0c0.3,0,0.7-0.1,0.9-0.4l3.7-3.6c0.1-0.1,0.2-0.3,0.2-0.4
		c0-0.2-0.1-0.3-0.2-0.4C28.3,31,28.1,31,28,31c-0.2,0-0.3,0.1-0.4,0.2l-3.8,3.7l-0.1,0l-3.7,0l0.1-0.2l7.5-12.6h0.1l9.3,0l-0.3,0.3
		l-6.7,6.5c-0.1,0.1-0.2,0.3-0.2,0.4c0,0.2,0.1,0.3,0.2,0.4c0.1,0.1,0.2,0.2,0.4,0.2c0,0,0,0,0,0c0.2,0,0.3-0.1,0.4-0.2l7.9-7.6
		l3.8,0c0.6,0,1.2-0.1,1.8-0.3l3.6-1.5c0.8-0.3,1.4-1.1,1.4-2C49.2,17.2,48.7,16.4,47.9,16.1z M47.4,19l-3.6,1.5
		c-0.4,0.2-0.9,0.3-1.3,0.3l-19.1,0c-0.1,0-0.1,0-0.2,0l-6.9-1.2c-0.3-0.1-0.6,0-0.9,0.2l-4.8,3.6l-1.8,0L9,23.2l2.9-4.5
		c0.3-0.4,0.3-0.9,0-1.3l-3.1-4.7l1.8,0l0,0l4.8,3.6c0.3,0.2,0.6,0.3,0.9,0.2l6.9-1.2c0.1,0,0.1,0,0.2,0l9.8,0
		c0.3,0,0.6-0.3,0.6-0.6c0-0.3-0.3-0.6-0.6-0.6l-5.5,0l0-0.1L20.1,1.5l0.3,0l3.4,0l0.1,0L37,14.2l-0.2,0.1c-0.2,0.1-0.4,0.3-0.4,0.5
		c0,0.3,0.3,0.6,0.6,0.6l5.6,0c0.5,0,0.9,0.1,1.3,0.3l3.6,1.5c0.6,0.2,0.6,0.8,0.6,0.9C48.1,18.2,48,18.8,47.4,19z"/>
	<path id="XMLID_3675_" class="st0" d="M27.2,18c0.1,0.5-0.3,1-0.8,1c-0.5,0.1-1-0.3-1-0.8c-0.1-0.5,0.3-1,0.8-1
		C26.7,17.1,27.2,17.5,27.2,18L27.2,18z M27.2,18"/>
	<path id="XMLID_3671_" class="st0" d="M30.1,17.2c0.5,0.2,0.8,0.7,0.6,1.2c-0.2,0.5-0.7,0.8-1.2,0.6c-0.5-0.2-0.8-0.7-0.6-1.2
		C29,17.3,29.6,17,30.1,17.2L30.1,17.2z M30.1,17.2"/>
	<path id="XMLID_3668_" class="st0" d="M33.8,17.4c0.4,0.4,0.4,1,0,1.3c-0.4,0.4-1,0.4-1.3,0c-0.4-0.4-0.4-1,0-1.3
		C32.9,17,33.5,17,33.8,17.4L33.8,17.4z M33.8,17.4"/>
	<path id="XMLID_3664_" class="st0" d="M36.7,19c0.5,0,0.9-0.4,0.9-0.9c0-0.5-0.4-0.9-0.9-0.9c-0.5,0-0.9,0.4-0.9,0.9
		C35.7,18.6,36.1,19,36.7,19L36.7,19z M36.7,19"/>
	<path id="XMLID_3707_" class="st0" d="M48.3,41.4H14.2v-3.5h0.6c0.3,0,0.6-0.3,0.6-0.6c0-0.3-0.3-0.6-0.6-0.6h-0.6v-3.5h0.6
		c0.3,0,0.6-0.3,0.6-0.6c0-0.3-0.3-0.6-0.6-0.6h-0.6v-1c0-0.4-0.3-0.8-0.7-1l-3.6-1.5c-0.5-0.2-1.1-0.2-1.6,0l-3.6,1.5
		c-0.4,0.2-0.7,0.5-0.7,1v1H3.6c-0.3,0-0.6,0.3-0.6,0.6c0,0.3,0.3,0.6,0.6,0.6h0.5v3.5H3.6C3.3,36.8,3,37,3,37.3
		c0,0.3,0.3,0.6,0.6,0.6h0.5v3.5H1.7c-0.9,0-1.5,0.7-1.5,1.5v5.2c0,0.9,0.7,1.5,1.5,1.5h2.4c0.3,0,0.6-0.3,0.6-0.6
		c0-0.3-0.3-0.6-0.6-0.6H1.7c-0.2,0-0.4-0.2-0.4-0.4V43c0-0.2,0.2-0.4,0.4-0.4h46.5c0.2,0,0.4,0.2,0.4,0.4v5.2
		c0,0.2-0.2,0.4-0.4,0.4h-4.2v-3c0-0.6-0.5-1.1-1.1-1.1H24.4c-0.6,0-1.1,0.5-1.1,1.1v3H8c-0.3,0-0.6,0.3-0.6,0.6
		c0,0.3,0.3,0.6,0.6,0.6h40.3c0.9,0,1.5-0.7,1.5-1.5V43C49.8,42.1,49.1,41.4,48.3,41.4z M13,41.4H5.3v-3.5H13V41.4z M13,36.8H5.3
		v-3.5H13V36.8z M13,32.1H5.3v-1l3.5-1.5c0.2-0.1,0.5-0.1,0.7,0l3.5,1.5V32.1z M28,48.5h-3.5v-2.9H28V48.5z M33.1,48.5h-4v-2.9h4
		V48.5z M38.3,48.5h-4v-2.9h4V48.5z M42.9,48.5h-3.5v-2.9h3.5V48.5z"/>
</g>
</svg>
