<?xml version="1.0" encoding="utf-8"?>
<!-- Generator: Adobe Illustrator 19.0.0, SVG Export Plug-In . SVG Version: 6.00 Build 0)  -->
<svg version="1.1" id="Layer_1" xmlns="http://www.w3.org/2000/svg" xmlns:xlink="http://www.w3.org/1999/xlink" x="0px" y="0px"
	 viewBox="0 0 50 50" style="enable-background:new 0 0 50 50;" xml:space="preserve">
<style type="text/css">
	.st0{fill:#FFFFFF;}
</style>
<g id="XMLID_15628_">
	<path id="XMLID_16468_" class="st0" d="M49.3,23.5H38v-2.3c0-0.3-0.1-0.5-0.4-0.6l-11.9-6.7v-0.6v-3V8.8V5.7V4.3V3.1
		c0-0.4-0.3-0.7-0.7-0.7s-0.7,0.3-0.7,0.7v10.8l-11.9,6.7C12.1,20.7,12,21,12,21.2v2.3H0.7c-0.4,0-0.7,0.3-0.7,0.7v22.7
		c0,0.4,0.3,0.7,0.7,0.7h48.5c0.4,0,0.7-0.3,0.7-0.7V24.3C50,23.9,49.7,23.5,49.3,23.5z M12,46.2H1.5V25H12V46.2z M24.3,46.2h-4.8
		V36h4.8V46.2z M30.6,46.2h-4.8V36h4.8V46.2z M32,46.2V35.3c0-0.4-0.3-0.7-0.7-0.7H18.7c-0.4,0-0.7,0.3-0.7,0.7v10.9h-4.6V21.7
		L25,15.2l11.6,6.5l0,24.5H32z M48.5,46.2H38V25h10.5V46.2z"/>
	<path id="XMLID_16067_" class="st0" d="M25,18.1L25,18.1c-1.9,0-3.5,1.6-3.5,3.5c0,0.9,0.4,1.8,1,2.5c0.7,0.7,1.5,1,2.5,1
		c1.9,0,3.5-1.6,3.5-3.5C28.5,19.7,26.9,18.1,25,18.1z M26.4,23c-0.4,0.4-0.9,0.6-1.4,0.6c-0.5,0-1.1-0.2-1.4-0.6
		c-0.4-0.4-0.6-0.9-0.6-1.4c0-1.1,0.9-2,2-2c1,0,1.8,0.7,2,1.6l0,0.1l0,0.3C27,22.2,26.8,22.7,26.4,23z"/>
	<rect id="XMLID_15696_" x="16.3" y="27.9" class="st0" width="5.4" height="1.5"/>
	<rect id="XMLID_15695_" x="27.6" y="27.9" class="st0" width="6.1" height="1.5"/>
	<path id="XMLID_15686_" class="st0" d="M28.4,11.7c0,0.4,0.3,0.7,0.7,0.7h7.1c0.2,0,0.4-0.1,0.5-0.2c0.1-0.1,0.2-0.3,0.2-0.5
		c0-0.1,0-0.2,0-0.2l-0.7-2.1l0.7-2c0.1-0.2,0.1-0.4,0-0.6c-0.1-0.2-0.2-0.3-0.4-0.4c-0.1,0-0.2,0-0.2,0h-3.4V5
		c0-0.4-0.3-0.7-0.7-0.7h-6.4v1.5h5.6v3.1h-5.6v1.5h2.6V11.7z M29.8,10.3h2.3c0.3,0,0.6-0.2,0.7-0.5l0-1.8h2.3l-0.4,1.3
		c-0.1,0.2-0.1,0.4,0,0.5l0.5,1.3h-5.3V10.3z"/>
</g>
</svg>
