<?xml version="1.0" encoding="utf-8"?>
<!-- Generator: Adobe Illustrator 19.0.0, SVG Export Plug-In . SVG Version: 6.00 Build 0)  -->
<svg version="1.1" id="Layer_1" xmlns="http://www.w3.org/2000/svg" xmlns:xlink="http://www.w3.org/1999/xlink" x="0px" y="0px"
	 viewBox="0 0 50 50" style="enable-background:new 0 0 50 50;" xml:space="preserve">
<style type="text/css">
	.st0{fill:#FFFFFF;}
</style>
<g id="XMLID_2935_">
	<path id="XMLID_17082_" class="st0" d="M10.7,16.2h1c0.1,0,0.2-0.1,0.2-0.2V1.3h27.2v1.9c0,0.1,0.1,0.2,0.2,0.2h1
		c0.1,0,0.2-0.1,0.2-0.2V0.7c0-0.4-0.3-0.7-0.7-0.7H11.2c-0.4,0-0.7,0.3-0.7,0.7V16C10.6,16.1,10.7,16.2,10.7,16.2z"/>
	<path id="XMLID_17081_" class="st0" d="M17.1,5.3c-0.1,0-0.2,0.1-0.2,0.2v2.1c0,0.1,0.1,0.2,0.2,0.2h1c0.1,0,0.2-0.1,0.2-0.2V5.5
		c0-0.1-0.1-0.2-0.2-0.2H17.1z"/>
	<path id="XMLID_17080_" class="st0" d="M25.7,5.5c0-0.1-0.1-0.2-0.2-0.2h-1c-0.1,0-0.2,0.1-0.2,0.2v2.1c0,0.1,0.1,0.2,0.2,0.2h1
		c0.1,0,0.2-0.1,0.2-0.2V5.5z"/>
	<path id="XMLID_17079_" class="st0" d="M25.7,14c0-0.1-0.1-0.2-0.2-0.2h-1c-0.1,0-0.2,0.1-0.2,0.2v2.1c0,0.1,0.1,0.2,0.2,0.2h1
		c0.1,0,0.2-0.1,0.2-0.2V14z"/>
	<path id="XMLID_17078_" class="st0" d="M25.7,22.6c0-0.1-0.1-0.2-0.2-0.2h-1c-0.1,0-0.2,0.1-0.2,0.2v2.1c0,0.1,0.1,0.2,0.2,0.2h1
		c0.1,0,0.2-0.1,0.2-0.2V22.6z"/>
	<path id="XMLID_17077_" class="st0" d="M25.7,31.1c0-0.1-0.1-0.2-0.2-0.2h-1c-0.1,0-0.2,0.1-0.2,0.2v2.1c0,0.1,0.1,0.2,0.2,0.2h1
		c0.1,0,0.2-0.1,0.2-0.2V31.1z"/>
	<path id="XMLID_17076_" class="st0" d="M25.5,39.5h-1c-0.1,0-0.2,0.1-0.2,0.2v2.1c0,0.1,0.1,0.2,0.2,0.2h1c0.1,0,0.2-0.1,0.2-0.2
		v-2.1C25.7,39.6,25.6,39.5,25.5,39.5z"/>
	<path id="XMLID_17075_" class="st0" d="M41.5,29.9v-1c0-0.1-0.1-0.2-0.2-0.2H31v1.3h10.4C41.5,30.1,41.5,30,41.5,29.9z"/>
	<path id="XMLID_17074_" class="st0" d="M41.5,22.7v-1c0-0.1-0.1-0.2-0.2-0.2H31v1.3h10.4C41.5,22.9,41.5,22.8,41.5,22.7z"/>
	<path id="XMLID_17073_" class="st0" d="M41.5,37.2v-1c0-0.1-0.1-0.2-0.2-0.2H31v1.3h10.4C41.5,37.3,41.5,37.2,41.5,37.2z"/>
	<path id="XMLID_17072_" class="st0" d="M41.5,15.5v-1c0-0.1-0.1-0.2-0.2-0.2H31v1.3h10.4C41.5,15.6,41.5,15.6,41.5,15.5z"/>
	<path id="XMLID_17071_" class="st0" d="M15.5,44.4H7c-0.4,0-0.7,0.3-0.7,0.7v3.6h1.3v-2.9h7.1v2.9h1.3v-3.6
		C16.2,44.7,15.9,44.4,15.5,44.4z"/>
	<path id="XMLID_17067_" class="st0" d="M49.8,48.7h-1.9V7c0-0.4-0.3-0.7-0.7-0.7H30.3c-0.4,0-0.7,0.3-0.7,0.7v41.6h-9.2V19.7
		c0-0.4-0.3-0.7-0.7-0.7H2.8c-0.4,0-0.7,0.3-0.7,0.7v28.9H0.2c-0.1,0-0.2,0.1-0.2,0.2v0.5C0,49.7,0.3,50,0.7,50h48.7
		c0.4,0,0.7-0.3,0.7-0.7v-0.5C50,48.7,49.9,48.7,49.8,48.7z M19,48.7h-1.6h-1.3h-1.3H7.7H6.3h-1H3.5V20.4H19V48.7z M46.5,48.7h-4.1
		h-2h-1.3h-3.9h-1.3h-1.5H31V40v-2.7V36v-5.9v-1.3v-5.9v-1.3v-5.9v-1.3v-3.4V7.7h15.6V48.7z"/>
	<path id="XMLID_17066_" class="st0" d="M39.8,43.4h-5.3c-0.4,0-0.7,0.3-0.7,0.7v4.6h1.3v-3.9h3.9v3.9h1.3V44
		C40.5,43.7,40.2,43.4,39.8,43.4z"/>
</g>
</svg>
