<svg id="eVTmpCjdQRl1" xmlns="http://www.w3.org/2000/svg" xmlns:xlink="http://www.w3.org/1999/xlink" viewBox="0 0 50 50" shape-rendering="geometricPrecision" text-rendering="geometricPrecision"><style><![CDATA[#eVTmpCjdQRl3 {animation: eVTmpCjdQRl3_s_do 6000ms linear infinite normal forwards}@keyframes eVTmpCjdQRl3_s_do { 0% {stroke-dashoffset: 30.637776} 13.333333% {stroke-dashoffset: 0} 100% {stroke-dashoffset: 0}} #eVTmpCjdQRl4 {animation: eVTmpCjdQRl4_s_do 6000ms linear infinite normal forwards}@keyframes eVTmpCjdQRl4_s_do { 0% {stroke-dashoffset: 86.345719} 8.333333% {stroke-dashoffset: 86.345719} 40% {stroke-dashoffset: 0} 100% {stroke-dashoffset: 0}} #eVTmpCjdQRl5 {animation: eVTmpCjdQRl5_s_do 6000ms linear infinite normal forwards}@keyframes eVTmpCjdQRl5_s_do { 0% {stroke-dashoffset: 40.56033} 40% {stroke-dashoffset: 40.56033} 73.333333% {stroke-dashoffset: 0} 100% {stroke-dashoffset: 0}} #eVTmpCjdQRl6 {animation: eVTmpCjdQRl6_s_do 6000ms linear infinite normal forwards}@keyframes eVTmpCjdQRl6_s_do { 0% {stroke-dashoffset: 33.94613} 40% {stroke-dashoffset: 33.94613} 73.333333% {stroke-dashoffset: 0} 100% {stroke-dashoffset: 0}} #eVTmpCjdQRl7 {animation: eVTmpCjdQRl7_s_do 6000ms linear infinite normal forwards}@keyframes eVTmpCjdQRl7_s_do { 0% {stroke-dashoffset: 24.180214} 40% {stroke-dashoffset: 24.180214} 73.333333% {stroke-dashoffset: 0} 100% {stroke-dashoffset: 0}}]]></style><g><path id="eVTmpCjdQRl3" d="M1,35.08l5.66-3.73c.35-.23.81-.13,1.04.22l7.83,12.11c.22.34.13.8-.21,1.03L9.43,48.66" fill="none" stroke="#74767b" stroke-width="1.5" stroke-linecap="round" stroke-linejoin="round" stroke-miterlimit="10" stroke-dashoffset="30.637776" stroke-dasharray="30.637776"/><path id="eVTmpCjdQRl4" d="M8.57,32.87c0,0,1.43-.14,4.14-2.21s4.29-4.43,7.57-3.36s2.07,1.71,8.29,1.64c0,0,1.79.14,2,1.64s-1,2.29-1,2.29-2.43,1.64-5.79,1.5c0,0,2.93.64,15.5-4.64c0,0,2.21-1.29,3.14.21s-.71,2.86-.71,2.86-3.79,3.5-9.86,6.14-10.56,1.36-10.56,1.36-2.29-.86-3.86,0-2.86,1.79-2.86,1.79" fill="none" stroke="#74767b" stroke-width="1.5" stroke-linecap="round" stroke-linejoin="round" stroke-miterlimit="10" stroke-dashoffset="86.345719" stroke-dasharray="86.345719"/><path id="eVTmpCjdQRl5" d="M27.17,10.85v10.02c0,.62.5,1.12,1.12,1.12h17c.62,0,1.12-.5,1.12-1.12v-10.02" fill="none" stroke="#59a645" stroke-width="1.5" stroke-linecap="round" stroke-linejoin="round" stroke-miterlimit="10" stroke-dashoffset="40.56033" stroke-dasharray="40.56033"/><path id="eVTmpCjdQRl6" d="M24.69,13.04l11.4-11.4c.38-.38,1-.38,1.38,0L49,13.15" fill="none" stroke="#59a645" stroke-width="1.5" stroke-linecap="round" stroke-linejoin="round" stroke-miterlimit="10" stroke-dashoffset="33.94613" stroke-dasharray="33.94613"/><path id="eVTmpCjdQRl7" d="M39.2,18.18h-4.82c-.43,0-.78-.35-.78-.78v-4.82c0-.43.35-.78.78-.78h4.82c.43,0,.78.35.78.78v4.82c0,.43-.35.78-.78.78Z" fill="none" stroke="#59a645" stroke-width="1.5" stroke-linecap="round" stroke-linejoin="round" stroke-miterlimit="10" stroke-dashoffset="24.180214" stroke-dasharray="24.180214"/></g></svg>