<?xml version="1.0" encoding="utf-8"?>
<!-- Generator: Adobe Illustrator 23.0.1, SVG Export Plug-In . SVG Version: 6.00 Build 0)  -->
<svg version="1.1" id="Layer_1" xmlns="http://www.w3.org/2000/svg" xmlns:xlink="http://www.w3.org/1999/xlink" x="0px" y="0px"
	 viewBox="0 0 50 50" style="enable-background:new 0 0 50 50;" xml:space="preserve">
<style type="text/css">
	.st0{fill:#FFFFFF;}
</style>
<g id="XMLID_4232_">
	<path id="XMLID_14006_" class="st0" d="M25.7,13.6c0-0.4-0.3-0.7-0.7-0.7c-0.4,0-0.7,0.3-0.7,0.7V16l-11.9,0.2
		c-0.2,0.1-0.4,0.4-0.4,0.6v8.8H0.7c-0.4,0-0.7,0.3-0.7,0.7V49c0,0.4,0.3,0.7,0.7,0.7h48.5c0.4,0,0.7-0.3,0.7-0.7V26.3
		c0-0.4-0.3-0.7-0.7-0.7H38v-8.8c0-0.3-0.1-0.6-0.4-0.7L25.7,16v-0.6v-1.6 M12,48.3H1.5V27.1H12V48.3z M34.1,48.3H32h-1.5h-4.8h-1.5
		h-4.8H18h-2h-2.6v-31H25h11.6v31.1h-2.5V48.3z M48.5,48.3H38V27.1h10.5V48.3z"/>
	<g id="XMLID_12314_">
		<path id="XMLID_13995_" class="st0" d="M23,24.8h-5.3c-0.3,0-0.5-0.2-0.5-0.5s0.2-0.5,0.5-0.5H23c0.3,0,0.5,0.2,0.5,0.5
			C23.5,24.5,23.3,24.8,23,24.8z"/>
	</g>
	<g id="XMLID_8690_">
		<path id="XMLID_8691_" class="st0" d="M32.2,24.8h-5.3c-0.3,0-0.5-0.2-0.5-0.5s0.2-0.5,0.5-0.5h5.3c0.3,0,0.5,0.2,0.5,0.5
			C32.7,24.5,32.5,24.8,32.2,24.8z"/>
	</g>
	<g id="XMLID_8688_">
		<path id="XMLID_8689_" class="st0" d="M23,29.5h-5.3c-0.3,0-0.5-0.2-0.5-0.5s0.2-0.5,0.5-0.5H23c0.3,0,0.5,0.2,0.5,0.5
			S23.3,29.5,23,29.5z"/>
	</g>
	<g id="XMLID_8684_">
		<path id="XMLID_8687_" class="st0" d="M32.2,29.5h-5.3c-0.3,0-0.5-0.2-0.5-0.5s0.2-0.5,0.5-0.5h5.3c0.3,0,0.5,0.2,0.5,0.5
			S32.5,29.5,32.2,29.5z"/>
	</g>
	<g id="XMLID_8682_">
		<path id="XMLID_8683_" class="st0" d="M23,34.3h-5.3c-0.3,0-0.5-0.2-0.5-0.5s0.2-0.5,0.5-0.5H23c0.3,0,0.5,0.2,0.5,0.5
			S23.3,34.3,23,34.3z"/>
	</g>
	<g id="XMLID_8655_">
		<path id="XMLID_8667_" class="st0" d="M32.2,34.3h-5.3c-0.3,0-0.5-0.2-0.5-0.5s0.2-0.5,0.5-0.5h5.3c0.3,0,0.5,0.2,0.5,0.5
			S32.5,34.3,32.2,34.3z"/>
	</g>
	<g id="XMLID_4753_">
		<path id="XMLID_4757_" class="st0" d="M22.5,44.7h-4.3c-0.3,0-0.5-0.2-0.5-0.5v-3.9c0-0.3,0.2-0.5,0.5-0.5h4.3
			c0.3,0,0.5,0.2,0.5,0.5v3.9C23,44.5,22.8,44.7,22.5,44.7z M18.7,43.7h3.2v-2.8h-3.2V43.7z"/>
	</g>
	<g id="XMLID_4424_">
		<path id="XMLID_4426_" class="st0" d="M31.7,44.7h-4.3c-0.3,0-0.5-0.2-0.5-0.5v-3.9c0-0.3,0.2-0.5,0.5-0.5h4.3
			c0.3,0,0.5,0.2,0.5,0.5v3.9C32.2,44.5,32,44.7,31.7,44.7z M27.9,43.7h3.2v-2.8h-3.2V43.7z"/>
	</g>
	<path id="XMLID_4418_" class="st0" d="M30.6,4h-2.7V1.3c0-0.6-0.5-1.1-1.1-1.1h-3.7c-0.6,0-1.1,0.5-1.1,1.1V4h-2.7
		c-0.6,0-1.1,0.5-1.1,1.1v3.7c0,0.6,0.5,1.1,1.1,1.1H22v2.7c0,0.6,0.5,1.1,1.1,1.1h3.7c0.6,0,1.1-0.5,1.1-1.1V9.8h2.7
		c0.6,0,1.1-0.5,1.1-1.1V5C31.6,4.5,31.1,4,30.6,4z M26.7,9.1v3.3h-3.5V9.1c0-0.2-0.2-0.4-0.4-0.4h-3.3V5.2h3.3
		c0.2,0,0.4-0.2,0.4-0.4V1.4h3.5v3.3c0,0.2,0.2,0.4,0.4,0.4h3.3v3.5h-3.3C26.9,8.6,26.7,8.8,26.7,9.1z"/>
</g>
</svg>
