<?xml version="1.0" encoding="utf-8"?>
<!-- Generator: Adobe Illustrator 19.0.0, SVG Export Plug-In . SVG Version: 6.00 Build 0)  -->
<svg version="1.1" id="Layer_1" xmlns="http://www.w3.org/2000/svg" xmlns:xlink="http://www.w3.org/1999/xlink" x="0px" y="0px"
	 viewBox="0 0 50 50" style="enable-background:new 0 0 50 50;" xml:space="preserve">
<style type="text/css">
	.st0{fill:#FFFFFF;}
</style>
<g id="XMLID_17101_">
	<g id="XMLID_17134_">
		<path id="XMLID_17135_" class="st0" d="M19.5,45.7c-0.1,0-0.3,0-0.4-0.1c-0.3-0.2-0.4-0.6-0.2-0.9l5.4-8.5
			c0.1-0.2,0.3-0.3,0.6-0.3h14.3c0.2,0,0.4,0.1,0.5,0.2l7,8.5c0.2,0.3,0.2,0.7-0.1,0.9c-0.3,0.2-0.7,0.2-0.9-0.1l-6.8-8.2H25.3
			l-5.2,8.2C20,45.6,19.8,45.7,19.5,45.7z"/>
	</g>
	<g id="XMLID_17132_">
		<path id="XMLID_17133_" class="st0" d="M25,37.3c-0.2,0-0.3-0.1-0.5-0.2l-6.3-5.7c-0.3-0.3-0.3-0.7,0-1c0.3-0.3,0.7-0.3,1,0
			l6.3,5.7c0.3,0.3,0.3,0.7,0,1C25.3,37.2,25.2,37.3,25,37.3z"/>
	</g>
	<g id="XMLID_17130_">
		<path id="XMLID_17131_" class="st0" d="M42.8,41.5H19c-0.4,0-0.7-0.3-0.7-0.7c0-0.4,0.3-0.7,0.7-0.7h23.7c0.4,0,0.7,0.3,0.7,0.7
			C43.4,41.2,43.1,41.5,42.8,41.5z"/>
	</g>
	<g id="XMLID_17136_">
		<path id="XMLID_17137_" class="st0" d="M49.1,45.7H0.7c-0.4,0-0.7-0.3-0.7-0.7s0.3-0.7,0.7-0.7h48.4c0.4,0,0.7,0.3,0.7,0.7
			S49.5,45.7,49.1,45.7z"/>
	</g>
	<g id="XMLID_17128_">
		<path id="XMLID_17129_" class="st0" d="M15,45.7c-0.4,0-0.6-0.3-0.6-0.6V7c0-0.4,0.3-0.6,0.6-0.6c0.4,0,0.6,0.3,0.6,0.6v38.1
			C15.6,45.4,15.3,45.7,15,45.7z"/>
	</g>
	<g id="XMLID_17124_">
		<path id="XMLID_17125_" class="st0" d="M29.3,23.3H1c-0.2,0-0.4-0.1-0.5-0.2c-0.1-0.1-0.2-0.3-0.2-0.5C0.4,22.5,1.9,8,15.3,8
			C28.8,8,30,22.5,30,22.6c0,0.2,0,0.4-0.2,0.5C29.7,23.2,29.5,23.3,29.3,23.3z M1.8,22h26.8c-0.4-2.8-2.5-12.7-13.3-12.7
			C4.5,9.3,2.2,19.2,1.8,22z"/>
	</g>
	<g id="XMLID_17122_">
		<path id="XMLID_17123_" class="st0" d="M22.6,23.3C22.6,23.3,22.6,23.3,22.6,23.3c-0.4,0-0.6-0.3-0.6-0.6C22,12.3,16.2,9.7,15,9.3
			c-7.4,3.1-6.4,13.2-6.4,13.3c0,0.4-0.2,0.7-0.6,0.7c-0.3,0-0.7-0.2-0.7-0.6c0-0.1-1.1-11.3,7.4-14.7C14.9,8,15,8,15.2,8
			c0.3,0.1,8.1,2.4,8.1,14.6C23.2,23,22.9,23.3,22.6,23.3z"/>
	</g>
	<g id="XMLID_17118_">
		<path id="XMLID_17119_" class="st0" d="M42.1,16.5c-2.4,0-4.3-1.9-4.3-4.3s1.9-4.3,4.3-4.3s4.3,1.9,4.3,4.3S44.5,16.5,42.1,16.5z
			 M42.1,9.2c-1.6,0-3,1.3-3,3s1.3,3,3,3s3-1.3,3-3S43.7,9.2,42.1,9.2z"/>
	</g>
	<g id="XMLID_17116_">
		<path id="XMLID_17117_" class="st0" d="M36.4,12.7h-1.6c-0.3,0-0.6-0.2-0.6-0.6c0-0.3,0.2-0.6,0.6-0.6h1.6c0.3,0,0.6,0.2,0.6,0.6
			C37,12.5,36.7,12.7,36.4,12.7z"/>
	</g>
	<g id="XMLID_17114_">
		<path id="XMLID_17115_" class="st0" d="M38.1,8.7c-0.1,0-0.3-0.1-0.4-0.2l-1.1-1.2c-0.2-0.2-0.2-0.6,0-0.8c0.2-0.2,0.6-0.2,0.8,0
			l1.1,1.2c0.2,0.2,0.2,0.6,0,0.8C38.4,8.6,38.2,8.7,38.1,8.7z"/>
	</g>
	<g id="XMLID_17112_">
		<path id="XMLID_17113_" class="st0" d="M42.2,7C42.2,7,42.2,7,42.2,7c-0.3,0-0.6-0.3-0.6-0.6l0-1.6c0-0.3,0.3-0.5,0.6-0.5
			c0,0,0,0,0,0c0.3,0,0.6,0.3,0.5,0.6l0,1.6C42.8,6.8,42.5,7,42.2,7z"/>
	</g>
	<g id="XMLID_17110_">
		<path id="XMLID_17111_" class="st0" d="M46.2,8.8c-0.1,0-0.3-0.1-0.4-0.2c-0.2-0.2-0.2-0.6,0-0.8L47,6.7c0.2-0.2,0.6-0.2,0.8,0
			c0.2,0.2,0.2,0.6,0,0.8l-1.2,1.1C46.5,8.7,46.4,8.8,46.2,8.8z"/>
	</g>
	<g id="XMLID_17108_">
		<path id="XMLID_17109_" class="st0" d="M49.4,13C49.4,13,49.4,13,49.4,13l-1.7-0.1c-0.3,0-0.5-0.3-0.5-0.6c0-0.3,0.2-0.5,0.6-0.5
			l1.6,0.1c0.3,0,0.5,0.3,0.5,0.6C50,12.7,49.7,13,49.4,13z"/>
	</g>
	<g id="XMLID_17106_">
		<path id="XMLID_17107_" class="st0" d="M47.1,18.1c-0.1,0-0.3-0.1-0.4-0.2l-1.1-1.2c-0.2-0.2-0.2-0.6,0-0.8c0.2-0.2,0.6-0.2,0.8,0
			l1.1,1.2c0.2,0.2,0.2,0.6,0,0.8C47.4,18.1,47.2,18.1,47.1,18.1z"/>
	</g>
	<g id="XMLID_17104_">
		<path id="XMLID_17105_" class="st0" d="M41.7,20.1C41.7,20.1,41.7,20.1,41.7,20.1c-0.3,0-0.6-0.3-0.6-0.6l0.1-1.6
			c0-0.3,0.3-0.5,0.6-0.5c0.3,0,0.5,0.3,0.5,0.6l-0.1,1.6C42.3,19.8,42,20.1,41.7,20.1z"/>
	</g>
	<g id="XMLID_17102_">
		<path id="XMLID_17103_" class="st0" d="M36.6,17.6c-0.2,0-0.3-0.1-0.4-0.2c-0.2-0.2-0.2-0.6,0-0.8l1.2-1.1c0.2-0.2,0.6-0.2,0.8,0
			c0.2,0.2,0.2,0.6,0,0.8L37,17.5C36.9,17.6,36.8,17.6,36.6,17.6z"/>
	</g>
</g>
</svg>
